<?xml version="1.0" encoding="UTF-8" standalone="no"?>
<!-- Created with Inkscape (http://www.inkscape.org/) -->

<svg
   xmlns:dc="http://purl.org/dc/elements/1.1/"
   xmlns:cc="http://creativecommons.org/ns#"
   xmlns:rdf="http://www.w3.org/1999/02/22-rdf-syntax-ns#"
   xmlns:svg="http://www.w3.org/2000/svg"
   xmlns="http://www.w3.org/2000/svg"
   xmlns:sodipodi="http://sodipodi.sourceforge.net/DTD/sodipodi-0.dtd"
   xmlns:inkscape="http://www.inkscape.org/namespaces/inkscape"
   width="19"
   height="20"
   viewBox="0 0 18.999999 20"
   id="svg2"
   version="1.1"
   inkscape:version="0.91 r13725"
   sodipodi:docname="wifi_0.svg">
  <defs
     id="defs4">
    <inkscape:perspective
       sodipodi:type="inkscape:persp3d"
       inkscape:vp_x="0 : 10 : 1"
       inkscape:vp_y="0 : 1000 : 0"
       inkscape:vp_z="18.999999 : 10 : 1"
       inkscape:persp3d-origin="9.4999995 : 6.6666667 : 1"
       id="perspective4705" />
  </defs>
  <sodipodi:namedview
     id="base"
     pagecolor="#000000"
     bordercolor="#666666"
     borderopacity="1.0"
     inkscape:pageopacity="0"
     inkscape:pageshadow="2"
     inkscape:zoom="64"
     inkscape:cx="8.7031886"
     inkscape:cy="12.059082"
     inkscape:document-units="px"
     inkscape:current-layer="layer1"
     showgrid="true"
     units="px"
     inkscape:window-width="1920"
     inkscape:window-height="1018"
     inkscape:window-x="1912"
     inkscape:window-y="-8"
     inkscape:window-maximized="1">
    <inkscape:grid
       type="xygrid"
       id="grid4136" />
  </sodipodi:namedview>
  <metadata
     id="metadata7">
    <rdf:RDF>
      <cc:Work
         rdf:about="">
        <dc:format>image/svg+xml</dc:format>
        <dc:type
           rdf:resource="http://purl.org/dc/dcmitype/StillImage" />
        <dc:title></dc:title>
      </cc:Work>
    </rdf:RDF>
  </metadata>
  <g
     inkscape:label="Layer 1"
     inkscape:groupmode="layer"
     id="layer1"
     transform="translate(0,-1032.3622)">
    <path
       style="fill:#ffffff;stroke:none"
       d="m 9.1895847,1050.5598 c -0.5177775,-0.065 -1.0004272,-0.3104 -1.3747013,-0.697 -0.4111593,-0.4248 -0.6308939,-0.9278 -0.661176,-1.5134 -0.058376,-1.1289 0.6955772,-2.1225 1.8195117,-2.398 0.1501471,-0.037 0.2299035,-0.045 0.4985834,-0.045 0.4302953,0 0.7176385,0.059 1.0424275,0.2238 0.797005,0.4015 1.278304,1.1401 1.312374,2.0142 0.03397,0.8704 -0.39381,1.6539 -1.153192,2.1124 -0.423557,0.2557 -0.9709247,0.3674 -1.4838273,0.3025 z"
       id="path4783" />
    <path
       style="fill:#333333;stroke:none"
       d="m 6.7625322,1045.3117 c -0.1034651,-0.053 -1.0144711,-0.9624 -1.0638414,-1.064 -0.032694,-0.067 -0.036768,-0.1053 -0.031298,-0.3105 0.00523,-0.1921 0.013207,-0.2461 0.045959,-0.3094 0.046078,-0.09 0.4068371,-0.4421 0.6644051,-0.6511 0.5663682,-0.4594 1.3107802,-0.8213 2.0216178,-0.9827 0.3922687,-0.09 0.6252332,-0.1133 1.1006451,-0.1133 0.4754116,0 0.7083762,0.025 1.1006392,0.1133 0.71078,0.1614 1.454709,0.5233 2.021715,0.9827 0.290907,0.2359 0.632251,0.5759 0.668165,0.6656 0.03991,0.1 0.05753,0.4824 0.02659,0.5783 -0.02979,0.092 -0.966881,1.0372 -1.082912,1.092 -0.10509,0.049 -0.287135,0.049 -0.392802,0 -0.04497,-0.021 -0.125978,-0.091 -0.19756,-0.1714 -0.166117,-0.1875 -0.426037,-0.4001 -0.662374,-0.5425 -1.0519555,-0.633 -2.3850477,-0.5284 -3.3322759,0.2623 -0.09446,0.077 -0.2263435,0.2048 -0.2930687,0.2802 -0.071579,0.08 -0.1525673,0.1508 -0.197545,0.1714 -0.1050404,0.047 -0.296391,0.047 -0.3960857,-0.016 z"
       id="path4781" />
    <path
       style="fill:#333333;stroke:none"
       d="m 4.0250331,1042.5874 c -0.098548,-0.049 -1.0659997,-1.0268 -1.090522,-1.1011 -0.011284,-0.035 -0.017339,-0.1588 -0.013841,-0.2852 0.00465,-0.1833 0.013442,-0.239 0.045379,-0.3005 0.075894,-0.1461 0.7682014,-0.7882 1.2206038,-1.1321 0.7216642,-0.549 1.6976501,-1.0576 2.5710618,-1.34 1.9650565,-0.6352 4.1081243,-0.5673 6.0066183,0.1904 0.704559,0.2811 1.476774,0.7142 2.049083,1.1496 0.452408,0.3439 1.144715,0.9861 1.220608,1.1321 0.03194,0.059 0.04038,0.1158 0.0454,0.3005 0.0035,0.1272 -0.0029,0.2513 -0.01387,0.2853 -0.02649,0.081 -1.013564,1.0704 -1.105367,1.1091 -0.08554,0.036 -0.266802,0.035 -0.358987,0 -0.04945,-0.02 -0.136193,-0.096 -0.264287,-0.2344 -0.673848,-0.7233 -1.65095,-1.3423 -2.659255,-1.6848 -0.733281,-0.2488 -1.380315,-0.3544 -2.1775654,-0.3544 -0.7972502,0 -1.4442828,0.1076 -2.1775656,0.3544 -1.00831,0.3425 -1.9854131,0.9615 -2.6592606,1.6848 -0.1280982,0.1371 -0.21483,0.2143 -0.2642876,0.2344 -0.099351,0.039 -0.2902297,0.037 -0.3738787,-0.016 z"
       id="path4779" />
    <path
       style="fill:#333333;stroke:none"
       d="m 1.2687253,1039.8198 c -0.1091891,-0.049 -1.03170952,-0.9839 -1.06079302,-1.0742 -0.012911,-0.042 -0.0190831,-0.1569 -0.015359,-0.2915 0.004649,-0.1831 0.0134421,-0.2389 0.0453207,-0.3002 0.0578878,-0.1109 0.65322881,-0.6837 1.09672392,-1.0551 1.8241363,-1.5266 4.0096256,-2.5046 6.3404508,-2.8377 0.71388,-0.1019 0.9094468,-0.1146 1.8249973,-0.1146 0.915557,0 1.111117,0.016 1.824998,0.1146 2.330819,0.3331 4.516313,1.3111 6.340445,2.8377 0.443496,0.3714 1.038823,0.9439 1.096725,1.0551 0.0319,0.062 0.04032,0.1172 0.04533,0.3002 0.0035,0.1342 -0.0029,0.2514 -0.01536,0.2915 -0.031,0.096 -0.953057,1.0257 -1.067052,1.0754 -0.109246,0.047 -0.287297,0.046 -0.395236,0 -0.05224,-0.024 -0.19139,-0.1445 -0.385701,-0.3343 -0.826189,-0.8079 -1.640467,-1.3934 -2.646427,-1.9029 -1.244538,-0.6302 -2.47711,-0.9781 -3.951023,-1.1142 -0.5502754,-0.049 -1.5382869,-0.028 -2.173062,0.053 -1.21247,0.1508 -2.3716778,0.5057 -3.4712526,1.0627 -1.0059596,0.5096 -1.8202383,1.0951 -2.6464322,1.9029 -0.1943104,0.19 -0.3335086,0.3107 -0.3856948,0.3345 -0.1060542,0.048 -0.2968909,0.048 -0.4015018,0 z"
       id="path26127" />
  </g>
</svg>
